<svg width="423" height="341" xmlns="http://www.w3.org/2000/svg"><g fill="none" fill-rule="evenodd"><g stroke="#A3B1BF" stroke-width="1.62" opacity=".6" stroke-linejoin="round" stroke-dasharray="12.15"><path d="M224.993 290.054c-65.929 0-119.375-53.434-119.375-119.35 0-65.915 53.446-119.35 119.375-119.35 65.928 0 119.374 53.435 119.374 119.35 0 65.916-53.446 119.35-119.374 119.35Z"/><path d="M224.823 339.72c-93.378 0-169.076-75.684-169.076-169.043 0-93.36 75.698-169.042 169.076-169.042s169.076 75.683 169.076 169.042c0 93.36-75.698 169.042-169.076 169.042Z"/></g><path fill="#F5F5F5" d="m78.617 196.401 20.278-1.052L84.052 209.2z"/><path stroke="#A3B1BF" stroke-width="1.62" stroke-linejoin="round" d="m78.617 196.401 20.278-1.052L84.052 209.2z"/><path d="m22.038 208.972 20.251-8.594 13.665 32.184-20.251 8.594z"/><path stroke="#A3B1BF" stroke-width="1.62" stroke-linejoin="round" d="m22.038 208.972 20.251-8.594 13.665 32.184-20.251 8.594z"/><path fill="#F5F5F5" d="m38.867 193.414 4.997-2.12 19.721 46.447-4.997 2.12z"/><path stroke="#A3B1BF" stroke-width="1.62" fill="#F0F2F5" stroke-linejoin="round" d="m38.867 193.414 4.997-2.12 19.721 46.447-4.997 2.12z"/><path d="m43.485 251.004 18.752-7.958 23.674 55.757-18.751 7.957z"/><path stroke="#A3B1BF" stroke-width="1.62" stroke-linejoin="round" d="m43.485 251.004 18.752-7.958 23.674 55.757-18.751 7.957z"/><path d="m48.068 201.196 3.463-1.47 11.313 26.643-3.463 1.47z"/><path stroke="#A3B1BF" stroke-width="1.62" stroke-linejoin="round" d="m48.068 201.196 3.463-1.47 11.313 26.643-3.463 1.47z"/><path fill="#F5F5F5" d="m53.783 204.42 8.022-3.405.765 1.802-8.022 3.404z"/><path stroke="#A3B1BF" stroke-width="1.62" stroke-linejoin="round" d="m53.783 204.42 8.022-3.405.765 1.802-8.022 3.404z"/><path fill="#F5F5F5" d="m60.283 219.73 8.022-3.404.765 1.802-8.021 3.404z"/><path stroke="#A3B1BF" stroke-width="1.62" stroke-linejoin="round" d="m60.283 219.73 8.022-3.404.765 1.802-8.021 3.404z"/><path d="m49.437 239.012 3.405 8.02-1.802.766-3.405-8.022z"/><path stroke="#A3B1BF" stroke-width="1.62" stroke-linejoin="round" d="m49.437 239.012 3.405 8.02-1.802.766-3.405-8.022z"/><path d="m17.433 217.134 4.605-8.162 13.665 32.184-9.072-2.359z"/><path stroke="#A3B1BF" stroke-width="1.62" stroke-linejoin="round" d="m17.433 217.134 4.605-8.162 13.665 32.184-9.072-2.359z"/><path d="m17.433 217.134-5.653-3.81 13.666 32.185 1.185-6.712z"/><path stroke="#A3B1BF" stroke-width="1.62" stroke-linejoin="round" d="m17.433 217.134-5.653-3.81 13.666 32.185 1.185-6.712z"/><path d="m14.117 219.19-5.772-1.165 4.074 9.596 3.171-4.96z"/><path stroke="#A3B1BF" stroke-width="1.62" stroke-linejoin="round" d="m14.117 219.19-5.772-1.165 4.074 9.596 3.171-4.96z"/><path d="m21.375 236.284-5.772-1.165 4.074 9.595 3.171-4.96z"/><path stroke="#A3B1BF" stroke-width="1.62" stroke-linejoin="round" d="m21.375 236.284-5.772-1.165 4.074 9.595 3.171-4.96z"/><path fill="#F0F2F5" d="m52.498 201.393 2.41-1.023 3.3 7.77-2.41 1.024z"/><path stroke="#A3B1BF" stroke-width="1.62" stroke-linejoin="round" d="m52.498 201.393 2.41-1.023 3.3 7.77-2.41 1.024z"/><path fill="#F0F2F5" d="m59.016 216.746 2.411-1.023 3.3 7.77-2.411 1.024z"/><path stroke="#A3B1BF" stroke-width="1.62" stroke-linejoin="round" d="m59.016 216.746 2.411-1.023 3.3 7.77-2.411 1.024z"/><path d="m45.41 237.037 3.6-1.528 1.65 3.885-3.6 1.528z"/><path stroke="#A3B1BF" stroke-width="1.62" fill="#F5F5F5" stroke-linejoin="round" d="m45.41 237.037 3.6-1.528 1.65 3.885-3.6 1.528z"/><path d="M66.817 209.043c-6.095-14.354-5.144-28.946 1.659-35.517 1.125-1.086 3.702-2.908 5.748 1.91l21.773 51.281c1.864 4.389-.907 5.75-2.468 5.805-9.455.33-20.617-9.123-26.712-23.479Z" fill="#F5F5F5"/><path d="M66.817 209.043c-6.095-14.354-5.144-28.946 1.659-35.517 1.125-1.086 3.702-2.908 5.748 1.91l21.773 51.281c1.864 4.389-.907 5.75-2.468 5.805-9.455.33-20.617-9.123-26.712-23.479Z" stroke="#A3B1BF" stroke-width="1.62" fill="#F0F2F5" stroke-linejoin="round"/><path fill="#F0F2F5" d="m61.153 199.48 2.41-1.022 8.552 20.139-2.411 1.023z"/><path stroke="#A3B1BF" stroke-width="1.62" stroke-linejoin="round" d="m61.153 199.48 2.41-1.022 8.552 20.139-2.411 1.023z"/><path d="M100.73 197.68a2.863 2.863 0 1 1-2.237-5.272 2.863 2.863 0 0 1 2.237 5.272" fill="#A3B1BF"/><path fill-opacity=".6" fill="#A3B1BF" d="m60.645 250.555-.893-2.104 2.104-.893.893 2.104z"/><path d="m60.645 250.555-.893-2.104 2.104-.893.893 2.104z"/><path fill-opacity=".6" fill="#A3B1BF" d="m62.097 253.974-.893-2.104 2.104-.893.893 2.104z"/><path d="m62.097 253.974-.893-2.104 2.104-.893.893 2.104z"/><path fill-opacity=".6" fill="#A3B1BF" d="m63.548 257.392-.893-2.103 2.104-.893.893 2.104z"/><path d="m63.548 257.392-.893-2.103 2.104-.893.893 2.104z"/><path fill-opacity=".6" fill="#A3B1BF" d="m65 260.811-.893-2.104 2.104-.892.893 2.103z"/><path d="m65 260.811-.893-2.104 2.104-.892.893 2.103z"/><path fill-opacity=".6" fill="#A3B1BF" d="m57.49 251.894-.894-2.104 2.104-.893.893 2.104z"/><path d="m57.49 251.894-.894-2.104 2.104-.893.893 2.104z"/><path fill-opacity=".6" fill="#A3B1BF" d="m58.94 255.313-.893-2.104 2.104-.893.894 2.104z"/><path d="m58.94 255.313-.893-2.104 2.104-.893.894 2.104z"/><path fill-opacity=".6" fill="#A3B1BF" d="m60.392 258.732-.893-2.104 2.104-.893.893 2.104z"/><path d="m59.5 256.628 2.103-.893.893 2.104-2.104.893z"/><path fill-opacity=".6" fill="#A3B1BF" d="m61.844 262.15-.893-2.103 2.104-.893.893 2.104z"/><path d="m61.844 262.15-.893-2.103 2.104-.893.893 2.104z"/><path fill-opacity=".6" fill="#A3B1BF" d="m54.333 253.233-.893-2.103 2.104-.893.893 2.104z"/><path d="m54.333 253.233-.893-2.103 2.104-.893.893 2.104z"/><path fill-opacity=".6" fill="#A3B1BF" d="m55.785 256.652-.894-2.104 2.104-.892.894 2.103z"/><path d="m55.785 256.652-.894-2.104 2.104-.892.894 2.103z"/><path fill-opacity=".6" fill="#A3B1BF" d="m57.236 260.07-.893-2.103 2.104-.893.893 2.104z"/><path d="m57.236 260.07-.893-2.103 2.104-.893.893 2.104z"/><path fill-opacity=".6" fill="#A3B1BF" d="m58.688 263.49-.893-2.104 2.104-.893.893 2.104z"/><path d="m58.688 263.49-.893-2.104 2.104-.893.893 2.104z"/><path fill-opacity=".6" fill="#A3B1BF" d="m51.177 254.573-.893-2.104 2.104-.893.893 2.104z"/><path d="m51.177 254.573-.893-2.104 2.104-.893.893 2.104z"/><path fill-opacity=".6" fill="#A3B1BF" d="m52.629 257.991-.894-2.103 2.104-.893.893 2.104z"/><path d="m52.629 257.991-.894-2.103 2.104-.893.893 2.104z"/><path fill-opacity=".6" fill="#A3B1BF" d="m54.08 261.41-.893-2.103 2.104-.893.893 2.103z"/><path d="m54.08 261.41-.893-2.103 2.104-.893.893 2.103z"/><path fill-opacity=".6" fill="#A3B1BF" d="m55.532 264.83-.893-2.105 2.103-.892.894 2.103z"/><path d="m55.532 264.83-.893-2.105 2.103-.892.894 2.103z"/><path fill-opacity=".6" fill="#A3B1BF" d="m48.02 255.912-.892-2.104 2.104-.893.893 2.104z"/><path d="m48.02 255.912-.892-2.104 2.104-.893.893 2.104z"/><path fill-opacity=".6" fill="#A3B1BF" d="m49.472 259.33-.893-2.103 2.104-.893.893 2.104z"/><path d="m49.472 259.33-.893-2.103 2.104-.893.893 2.104z"/><path fill-opacity=".6" fill="#A3B1BF" d="m50.924 262.75-.893-2.104 2.104-.893.893 2.104z"/><path d="m50.924 262.75-.893-2.104 2.104-.893.893 2.104z"/><path fill-opacity=".6" fill="#A3B1BF" d="m52.376 266.168-.894-2.103 2.104-.893.894 2.104z"/><path d="m52.376 266.168-.894-2.103 2.104-.893.894 2.104z"/><path fill-opacity=".6" fill="#A3B1BF" d="m68.248 268.46-.894-2.104 2.104-.893.893 2.104z"/><path d="m68.248 268.46-.894-2.104 2.104-.893.893 2.104z"/><path fill-opacity=".6" fill="#A3B1BF" d="m69.7 271.878-.894-2.103 2.104-.893.893 2.104z"/><path d="m69.7 271.878-.894-2.103 2.104-.893.893 2.104z"/><path fill-opacity=".6" fill="#A3B1BF" d="m71.15 275.297-.892-2.103 2.103-.893.894 2.103z"/><path d="m71.15 275.297-.892-2.103 2.103-.893.894 2.103z"/><path fill-opacity=".6" fill="#A3B1BF" d="m72.602 278.716-.893-2.104 2.104-.892.893 2.103z"/><path d="m72.602 278.716-.893-2.104 2.104-.892.893 2.103z"/><path fill-opacity=".6" fill="#A3B1BF" d="m65.091 269.799-.893-2.104 2.104-.893.893 2.104z"/><path d="m65.091 269.799-.893-2.104 2.104-.893.893 2.104z"/><path fill-opacity=".6" fill="#A3B1BF" d="m66.543 273.218-.893-2.104 2.104-.893.893 2.104z"/><path d="m66.543 273.218-.893-2.104 2.104-.893.893 2.104z"/><path fill-opacity=".6" fill="#A3B1BF" d="m67.995 276.637-.894-2.104 2.104-.893.894 2.104z"/><path d="m67.995 276.637-.894-2.104 2.104-.893.894 2.104z"/><path fill-opacity=".6" fill="#A3B1BF" d="m69.446 280.055-.893-2.103 2.104-.893.893 2.104z"/><path d="m69.446 280.055-.893-2.103 2.104-.893.893 2.104z"/><path fill-opacity=".6" fill="#A3B1BF" d="m61.935 271.138-.893-2.103 2.104-.893.893 2.103z"/><path d="m61.935 271.138-.893-2.103 2.104-.893.893 2.103z"/><path fill-opacity=".6" fill="#A3B1BF" d="m63.387 274.557-.893-2.104 2.104-.892.893 2.103z"/><path d="m63.387 274.557-.893-2.104 2.104-.892.893 2.103z"/><path fill-opacity=".6" fill="#A3B1BF" d="m64.839 277.976-.894-2.104 2.104-.893.893 2.104z"/><path d="m64.839 277.976-.894-2.104 2.104-.893.893 2.104z"/><path fill-opacity=".6" fill="#A3B1BF" d="m66.29 281.395-.893-2.104 2.104-.893.893 2.104z"/><path d="m66.29 281.395-.893-2.104 2.104-.893.893 2.104z"/><path fill-opacity=".6" fill="#A3B1BF" d="m58.78 272.478-.894-2.104 2.104-.893.893 2.104z"/><path d="m58.78 272.478-.894-2.104 2.104-.893.893 2.104z"/><path fill-opacity=".6" fill="#A3B1BF" d="m60.23 275.896-.892-2.103 2.104-.893.893 2.104z"/><path d="m60.23 275.896-.892-2.103 2.104-.893.893 2.104z"/><path fill-opacity=".6" fill="#A3B1BF" d="m61.682 279.315-.893-2.104 2.104-.892.893 2.103z"/><path d="m61.682 279.315-.893-2.104 2.104-.892.893 2.103z"/><path fill-opacity=".6" fill="#A3B1BF" d="m63.134 282.734-.893-2.104 2.104-.893.893 2.104z"/><path d="m63.134 282.734-.893-2.104 2.104-.893.893 2.104z"/><path fill-opacity=".6" fill="#A3B1BF" d="m55.623 273.817-.893-2.104 2.104-.893.893 2.104z"/><path d="m55.623 273.817-.893-2.104 2.104-.893.893 2.104z"/><path fill-opacity=".6" fill="#A3B1BF" d="m57.075 277.236-.893-2.104 2.103-.893.894 2.104z"/><path d="m57.075 277.236-.893-2.104 2.103-.893.894 2.104z"/><path fill-opacity=".6" fill="#A3B1BF" d="m58.526 280.654-.893-2.103 2.104-.893.893 2.104z"/><path d="m58.526 280.654-.893-2.103 2.104-.893.893 2.104z"/><path fill-opacity=".6" fill="#A3B1BF" d="m59.978 284.073-.893-2.103 2.104-.893.893 2.103z"/><path d="m59.978 284.073-.893-2.103 2.104-.893.893 2.103z"/><path fill-opacity=".6" fill="#A3B1BF" d="m75.85 286.365-.893-2.104 2.104-.893.893 2.104z"/><path d="m75.85 286.365-.893-2.104 2.104-.893.893 2.104z"/><path fill-opacity=".6" fill="#A3B1BF" d="m77.302 289.783-.894-2.103 2.104-.893.893 2.104z"/><path d="m77.302 289.783-.894-2.103 2.104-.893.893 2.104z"/><path fill-opacity=".6" fill="#A3B1BF" d="m78.753 293.202-.893-2.104 2.104-.892.893 2.103z"/><path d="m78.753 293.202-.893-2.104 2.104-.892.893 2.103z"/><path fill-opacity=".6" fill="#A3B1BF" d="m80.205 296.621-.893-2.104 2.103-.893.894 2.104z"/><path d="m80.205 296.621-.893-2.104 2.103-.893.894 2.104z"/><path fill-opacity=".6" fill="#A3B1BF" d="M72.694 287.704 71.8 285.6l2.103-.893.894 2.104z"/><path d="M72.694 287.704 71.8 285.6l2.103-.893.894 2.104z"/><path fill-opacity=".6" fill="#A3B1BF" d="m74.145 291.123-.893-2.104 2.104-.893.893 2.104z"/><path d="m74.145 291.123-.893-2.104 2.104-.893.893 2.104z"/><path fill-opacity=".6" fill="#A3B1BF" d="m75.597 294.541-.893-2.103 2.104-.893.893 2.104z"/><path d="m75.597 294.541-.893-2.103 2.104-.893.893 2.104z"/><path fill-opacity=".6" fill="#A3B1BF" d="m77.049 297.96-.894-2.103 2.104-.893.894 2.103z"/><path d="m77.049 297.96-.894-2.103 2.104-.893.894 2.103z"/><path fill-opacity=".6" fill="#A3B1BF" d="m69.538 289.043-.894-2.104 2.104-.892.894 2.103z"/><path d="m69.538 289.043-.894-2.104 2.104-.892.894 2.103z"/><path fill-opacity=".6" fill="#A3B1BF" d="m70.99 292.462-.894-2.104 2.104-.893.893 2.104z"/><path d="m70.99 292.462-.894-2.104 2.104-.893.893 2.104z"/><path fill-opacity=".6" fill="#A3B1BF" d="m72.44 295.88-.892-2.103 2.104-.893.893 2.104z"/><path d="m72.44 295.88-.892-2.103 2.104-.893.893 2.104z"/><path fill-opacity=".6" fill="#A3B1BF" d="m73.893 299.3-.894-2.104 2.104-.893.893 2.104z"/><path d="m73.893 299.3-.894-2.104 2.104-.893.893 2.104z"/><path fill-opacity=".6" fill="#A3B1BF" d="m66.382 290.382-.894-2.103 2.104-.893.893 2.104z"/><path d="m66.382 290.382-.894-2.103 2.104-.893.893 2.104z"/><path fill-opacity=".6" fill="#A3B1BF" d="m67.833 293.801-.893-2.103 2.104-.893.893 2.103z"/><path d="m67.833 293.801-.893-2.103 2.104-.893.893 2.103z"/><path fill-opacity=".6" fill="#A3B1BF" d="m69.285 297.22-.893-2.104 2.103-.892.894 2.103z"/><path d="m69.285 297.22-.893-2.104 2.103-.892.894 2.103z"/><path fill-opacity=".6" fill="#A3B1BF" d="m70.736 300.639-.893-2.104 2.104-.893.893 2.104z"/><path d="m70.736 300.639-.893-2.104 2.104-.893.893 2.104z"/><path fill-opacity=".6" fill="#A3B1BF" d="m63.226 291.722-.894-2.104 2.104-.893.893 2.104z"/><path d="m62.332 289.618 2.104-.893.893 2.104-2.103.893z"/><path fill-opacity=".6" fill="#A3B1BF" d="m64.677 295.14-.893-2.103 2.104-.893.893 2.104z"/><path d="m64.677 295.14-.893-2.103 2.104-.893.893 2.104z"/><path fill-opacity=".6" fill="#A3B1BF" d="m66.129 298.56-.893-2.104 2.103-.893.894 2.104z"/><path d="m66.129 298.56-.893-2.104 2.103-.893.894 2.104z"/><path fill-opacity=".6" fill="#A3B1BF" d="m67.58 301.978-.893-2.104 2.104-.892.893 2.103z"/><path d="m67.58 301.978-.893-2.104 2.104-.892.893 2.103zM20.241 196.26l18.752-7.957-23.674-55.758-18.752 7.958z"/><path d="m33.004 200.31-3.406-8.02-1.802.764 3.406 8.021z"/><path stroke="#A3B1BF" stroke-width="1.62" stroke-linejoin="round" d="m33.004 200.31-3.406-8.02-1.802.764 3.406 8.021z"/><path fill-opacity=".8" fill="#A3B1BF" d="m31.628 204.578 3.6-1.528-1.649-3.885-3.6 1.528z"/><path stroke="#A3B1BF" stroke-width="1.62" fill="#FFF" stroke-linejoin="round" d="m31.628 204.578 3.6-1.528-1.649-3.885-3.6 1.528z"/><path fill-opacity=".8" fill="#A3B1BF" d="m32.485 184.231.893 2.104 2.104-.893-.893-2.103z"/><path d="m32.485 184.231.893 2.104 2.104-.893-.893-2.103z"/><path fill-opacity=".8" fill="#A3B1BF" d="m31.033 180.813.893 2.103 2.104-.893-.893-2.103z"/><path d="m31.033 180.813.893 2.103 2.104-.893-.893-2.103z"/><path fill-opacity=".8" fill="#A3B1BF" d="m29.581 177.394.894 2.103 2.104-.892-.894-2.104z"/><path d="m29.581 177.394.894 2.103 2.104-.892-.894-2.104z"/><path fill-opacity=".8" fill="#A3B1BF" d="m28.13 173.975.893 2.104 2.104-.893-.893-2.104z"/><path d="m28.13 173.975.893 2.104 2.104-.893-.893-2.104z"/><path fill-opacity=".8" fill="#A3B1BF" d="m29.329 185.57.893 2.104 2.104-.892-.893-2.104z"/><path d="m29.329 185.57.893 2.104 2.104-.892-.893-2.104z"/><path fill-opacity=".8" fill="#A3B1BF" d="m27.877 182.152.893 2.104 2.104-.893-.893-2.104z"/><path d="m27.877 182.152.893 2.104 2.104-.893-.893-2.104z"/><path fill-opacity=".8" fill="#A3B1BF" d="m26.425 178.733.894 2.104 2.104-.893-.894-2.104z"/><path d="m26.425 178.733.894 2.104 2.104-.893-.894-2.104z"/><path fill-opacity=".8" fill="#A3B1BF" d="m24.974 175.314.893 2.104 2.104-.893-.893-2.104z"/><path d="m24.974 175.314.893 2.104 2.104-.893-.893-2.104z"/><path fill-opacity=".8" fill="#A3B1BF" d="m26.173 186.91.893 2.104 2.104-.893-.894-2.104z"/><path d="m26.173 186.91.893 2.104 2.104-.893-.894-2.104z"/><path fill-opacity=".8" fill="#A3B1BF" d="m24.72 183.491.894 2.104 2.104-.893-.893-2.104z"/><path d="m24.72 183.491.894 2.104 2.104-.893-.893-2.104z"/><path fill-opacity=".8" fill="#A3B1BF" d="m23.27 180.072.893 2.104 2.103-.893-.893-2.103z"/><path d="m23.27 180.072.893 2.104 2.103-.893-.893-2.103z"/><path fill-opacity=".8" fill="#A3B1BF" d="m21.818 176.654.893 2.103 2.104-.893-.893-2.103z"/><path d="m21.818 176.654.893 2.103 2.104-.893-.893-2.103z"/><path fill-opacity=".8" fill="#A3B1BF" d="m23.016 188.25.894 2.103 2.104-.893-.894-2.104z"/><path d="m23.016 188.25.894 2.103 2.104-.893-.894-2.104z"/><path fill-opacity=".8" fill="#A3B1BF" d="m21.565 184.83.893 2.104 2.104-.893-.893-2.103z"/><path d="m21.565 184.83.893 2.104 2.104-.893-.893-2.103z"/><path fill-opacity=".8" fill="#A3B1BF" d="m20.113 181.412.893 2.103 2.104-.892-.893-2.104z"/><path d="m20.113 181.412.893 2.103 2.104-.892-.893-2.104z"/><path fill-opacity=".8" fill="#A3B1BF" d="m18.662 177.993.893 2.104 2.104-.893-.893-2.104z"/><path d="m18.662 177.993.893 2.104 2.104-.893-.893-2.104z"/><path fill-opacity=".8" fill="#A3B1BF" d="m19.86 189.589.894 2.103 2.103-.893-.893-2.103z"/><path d="m19.86 189.589.894 2.103 2.103-.893-.893-2.103z"/><path fill-opacity=".8" fill="#A3B1BF" d="m18.409 186.17.893 2.103 2.104-.892-.893-2.104z"/><path d="m18.409 186.17.893 2.103 2.104-.892-.893-2.104z"/><path fill-opacity=".8" fill="#A3B1BF" d="m16.957 182.75.893 2.105 2.104-.893-.893-2.104z"/><path d="m16.957 182.75.893 2.105 2.104-.893-.893-2.104z"/><path fill-opacity=".8" fill="#A3B1BF" d="m15.505 179.332.894 2.104 2.104-.893-.894-2.104z"/><path d="m15.505 179.332.894 2.104 2.104-.893-.894-2.104z"/><path fill-opacity=".8" fill="#A3B1BF" d="m24.882 166.326.894 2.104 2.103-.893-.893-2.103z"/><path d="m24.882 166.326.894 2.104 2.103-.893-.893-2.103z"/><path fill-opacity=".8" fill="#A3B1BF" d="m23.43 162.908.894 2.103 2.104-.892-.893-2.104z"/><path d="m23.43 162.908.894 2.103 2.104-.892-.893-2.104z"/><path fill-opacity=".8" fill="#A3B1BF" d="m21.98 159.489.892 2.104 2.104-.893-.893-2.104z"/><path d="m21.98 159.489.892 2.104 2.104-.893-.893-2.104z"/><path fill-opacity=".8" fill="#A3B1BF" d="m20.528 156.07.893 2.104 2.104-.893-.894-2.104z"/><path d="m20.528 156.07.893 2.104 2.104-.893-.894-2.104z"/><path fill-opacity=".8" fill="#A3B1BF" d="m21.726 167.666.893 2.103 2.104-.892-.893-2.104z"/><path d="m21.726 167.666.893 2.103 2.104-.892-.893-2.104z"/><path fill-opacity=".8" fill="#A3B1BF" d="m20.275 164.247.893 2.104 2.104-.893-.893-2.104z"/><path d="m20.275 164.247.893 2.104 2.104-.893-.893-2.104z"/><path fill-opacity=".8" fill="#A3B1BF" d="m18.823 160.828.893 2.104 2.104-.893-.893-2.104z"/><path d="m18.823 160.828.893 2.104 2.104-.893-.893-2.104z"/><path fill-opacity=".8" fill="#A3B1BF" d="m17.371 157.41.894 2.103 2.104-.893-.894-2.103z"/><path d="m17.371 157.41.894 2.103 2.104-.893-.894-2.103z"/><path fill-opacity=".8" fill="#A3B1BF" d="m18.57 169.005.893 2.104 2.104-.893-.893-2.104z"/><path d="m18.57 169.005.893 2.104 2.104-.893-.893-2.104z"/><path fill-opacity=".8" fill="#A3B1BF" d="m17.119 165.586.893 2.104 2.104-.893-.894-2.104z"/><path d="m17.119 165.586.893 2.104 2.104-.893-.894-2.104z"/><path fill-opacity=".8" fill="#A3B1BF" d="m15.667 162.167.893 2.104 2.104-.893-.893-2.103z"/><path d="m15.667 162.167.893 2.104 2.104-.893-.893-2.103z"/><path fill-opacity=".8" fill="#A3B1BF" d="m14.215 158.749.894 2.103 2.103-.892-.893-2.104z"/><path d="m14.215 158.749.894 2.103 2.103-.892-.893-2.104z"/><path fill-opacity=".8" fill="#A3B1BF" d="m15.414 170.344.893 2.104 2.104-.893-.893-2.103z"/><path d="m15.414 170.344.893 2.104 2.104-.893-.893-2.103z"/><path fill-opacity=".8" fill="#A3B1BF" d="m13.963 166.926.893 2.103 2.104-.893-.894-2.103z"/><path d="m13.963 166.926.893 2.103 2.104-.893-.894-2.103z"/><path fill-opacity=".8" fill="#A3B1BF" d="m12.51 163.507.894 2.103 2.104-.892-.893-2.104z"/><path d="m12.51 163.507.894 2.103 2.104-.892-.893-2.104z"/><path fill-opacity=".8" fill="#A3B1BF" d="m11.06 160.088.892 2.104 2.104-.893-.893-2.104z"/><path d="m11.06 160.088.892 2.104 2.104-.893-.893-2.104z"/><path fill-opacity=".8" fill="#A3B1BF" d="m12.258 171.684.893 2.103 2.104-.892-.893-2.104z"/><path d="m12.258 171.684.893 2.103 2.104-.892-.893-2.104z"/><path fill-opacity=".8" fill="#A3B1BF" d="m10.806 168.265.894 2.104 2.104-.893-.894-2.104z"/><path d="m10.806 168.265.894 2.104 2.104-.893-.894-2.104z"/><path fill-opacity=".8" fill="#A3B1BF" d="m9.355 164.846.893 2.104 2.104-.893-.893-2.104z"/><path d="m9.355 164.846.893 2.104 2.104-.893-.893-2.104z"/><path fill-opacity=".8" fill="#A3B1BF" d="m7.903 161.427.893 2.104 2.104-.893-.893-2.104z"/><path d="m7.903 161.427.893 2.104 2.104-.893-.893-2.104z"/><path fill-opacity=".8" fill="#A3B1BF" d="m17.28 148.422.893 2.103 2.104-.893-.893-2.103z"/><path d="m17.28 148.422.893 2.103 2.104-.893-.893-2.103z"/><path fill-opacity=".8" fill="#A3B1BF" d="m15.828 145.003.894 2.103 2.104-.892-.894-2.104z"/><path d="m15.828 145.003.894 2.103 2.104-.892-.894-2.104z"/><path fill-opacity=".8" fill="#A3B1BF" d="m14.377 141.584.893 2.104 2.104-.893-.893-2.104z"/><path d="m14.377 141.584.893 2.104 2.104-.893-.893-2.104z"/><path fill-opacity=".8" fill="#A3B1BF" d="m12.925 138.165.893 2.104 2.104-.893-.893-2.104z"/><path fill="#B2BECA" d="m13.818 140.269 2.104-.893-.893-2.104-2.104.893z"/><path fill-opacity=".8" fill="#A3B1BF" d="m14.124 149.76.893 2.105 2.104-.893-.893-2.104z"/><path d="m14.124 149.76.893 2.105 2.104-.893-.893-2.104z"/><path fill-opacity=".8" fill="#A3B1BF" d="m12.672 146.342.894 2.104 2.103-.893-.893-2.104z"/><path d="m12.672 146.342.894 2.104 2.103-.893-.893-2.104z"/><path fill-opacity=".8" fill="#A3B1BF" d="m11.22 142.923.894 2.104 2.104-.893-.893-2.104z"/><path d="m11.22 142.923.894 2.104 2.104-.893-.893-2.104z"/><path fill-opacity=".8" fill="#A3B1BF" d="m9.77 139.504.892 2.104 2.104-.893-.893-2.103z"/><path d="m9.77 139.504.892 2.104 2.104-.893-.893-2.103z"/><path fill-opacity=".8" fill="#A3B1BF" d="m10.968 151.1.893 2.104 2.104-.893-.893-2.104z"/><path d="m10.968 151.1.893 2.104 2.104-.893-.893-2.104z"/><path fill-opacity=".8" fill="#A3B1BF" d="m9.516 147.681.893 2.104 2.104-.893-.893-2.103z"/><path d="m9.516 147.681.893 2.104 2.104-.893-.893-2.103z"/><path fill-opacity=".8" fill="#A3B1BF" d="m8.065 144.262.893 2.104 2.104-.893-.893-2.103z"/><path d="m8.065 144.262.893 2.104 2.104-.893-.893-2.103z"/><path fill-opacity=".8" fill="#A3B1BF" d="m6.613 140.844.893 2.103 2.104-.892-.893-2.104z"/><path d="m6.613 140.844.893 2.103 2.104-.892-.893-2.104z"/><path fill-opacity=".8" fill="#A3B1BF" d="m7.812 152.44.893 2.103 2.104-.893-.893-2.103z"/><path d="m7.812 152.44.893 2.103 2.104-.893-.893-2.103z"/><path fill-opacity=".8" fill="#A3B1BF" d="m6.36 149.02.893 2.104 2.104-.892-.893-2.104z"/><path d="m6.36 149.02.893 2.104 2.104-.892-.893-2.104z"/><path fill-opacity=".8" fill="#A3B1BF" d="m4.909 145.602.893 2.104 2.104-.893-.894-2.104z"/><path d="m4.909 145.602.893 2.104 2.104-.893-.894-2.104z"/><path fill-opacity=".8" fill="#A3B1BF" d="m3.457 142.183.893 2.104 2.104-.893-.893-2.104z"/><path d="m3.457 142.183.893 2.104 2.104-.893-.893-2.104z"/><path fill-opacity=".8" fill="#A3B1BF" d="m4.656 153.779.893 2.103 2.104-.892-.893-2.104z"/><path d="m4.656 153.779.893 2.103 2.104-.892-.893-2.104z"/><path fill-opacity=".8" fill="#A3B1BF" d="m3.204 150.36.893 2.104 2.104-.893-.893-2.104z"/><path d="m3.204 150.36.893 2.104 2.104-.893-.893-2.104z"/><path fill-opacity=".8" fill="#A3B1BF" d="m1.752 146.941.894 2.104 2.104-.893-.894-2.104z"/><path d="m1.752 146.941.894 2.104 2.104-.893-.894-2.104z"/><path fill-opacity=".8" fill="#A3B1BF" d="m.3 143.522.894 2.104 2.104-.893-.893-2.104z"/><path d="m.3 143.522.894 2.104 2.104-.893-.893-2.104z"/><path d="M108.976 190.44c-1.626-3.83-2.29-7.213-1.482-7.556.808-.343 2.781 2.484 4.408 6.314 1.625 3.83 2.29 7.213 1.481 7.555-.808.343-2.78-2.484-4.407-6.313Z" fill="#F5F5F5"/><path d="M108.976 190.44c-1.626-3.83-2.29-7.213-1.482-7.556.808-.343 2.781 2.484 4.408 6.314 1.625 3.83 2.29 7.213 1.481 7.555-.808.343-2.78-2.484-4.407-6.313Z" stroke="#A3B1BF" stroke-width="1.62" stroke-linejoin="round"/><path d="M115.406 187.71c-3.249-7.652-4.575-14.41-2.96-15.096 1.614-.685 5.556 4.964 8.805 12.616 3.25 7.653 4.576 14.412 2.961 15.097-1.614.685-5.556-4.963-8.806-12.617Z" fill="#F5F5F5"/><path d="M115.406 187.71c-3.249-7.652-4.575-14.41-2.96-15.096 1.614-.685 5.556 4.964 8.805 12.616 3.25 7.653 4.576 14.412 2.961 15.097-1.614.685-5.556-4.963-8.806-12.617Z" stroke="#A3B1BF" stroke-width="1.62" stroke-linejoin="round"/><path d="M125.79 183.305c-4.355-10.256-6.132-19.314-3.968-20.232 2.163-.918 7.446 6.652 11.8 16.908 4.355 10.255 6.132 19.313 3.969 20.231-2.164.918-7.447-6.652-11.802-16.907Z" fill-opacity=".35" fill="#F5F5F5"/><path d="M125.79 183.305c-4.355-10.256-6.132-19.314-3.968-20.232 2.163-.918 7.446 6.652 11.8 16.908 4.355 10.255 6.132 19.313 3.969 20.231-2.164.918-7.447-6.652-11.802-16.907Z" stroke="#A3B1BF" stroke-width="1.62" stroke-linejoin="round"/><path d="M44.715 90.559c-2.536-1.139-4.219-2.494-3.935-3.273.283-.779 2.439-.736 5.11.02 1.131-2.535 2.462-4.223 3.214-3.95.751.274.686 2.422-.077 5.092 2.532 1.138 4.21 2.49 3.927 3.269-.284.78-2.443.736-5.119-.023-1.12 2.473-2.422 4.106-3.162 3.836-.741-.27-.688-2.357.042-4.971Z" fill-opacity=".4" fill="#A3B1BF" opacity=".85"/><path d="m98.776 330.14-.351.386a2.43 2.43 0 0 1-4.19-1.201l-.092-.512-.474-.214a2.43 2.43 0 0 1-.152-4.356l.458-.246.057-.518a2.43 2.43 0 0 1 4.095-1.49l.377.36.51-.106a2.43 2.43 0 0 1 2.682 3.434l-.225.469.258.451a2.43 2.43 0 0 1-2.437 3.614l-.516-.07Zm314.189-209.139a1.523 1.523 0 0 1-2.291-1.487 1.523 1.523 0 0 1 .707-2.639 1.523 1.523 0 0 1 2.728-.143 1.523 1.523 0 0 1 .98 2.55 1.523 1.523 0 0 1-2.123 1.72ZM78.26 39.51l-.833.127a2.43 2.43 0 0 1-2.5-3.57l.405-.738-.378-.752a2.43 2.43 0 0 1 2.623-3.48l.827.156.599-.593a2.43 2.43 0 0 1 4.12 1.419l.107.836.748.386a2.43 2.43 0 0 1-.076 4.357l-.76.36-.136.83a2.43 2.43 0 0 1-4.168 1.275l-.578-.614Zm298.371 267.234-.533-.135a2.43 2.43 0 0 1-.906-4.263l.431-.34-.035-.548a2.43 2.43 0 0 1 3.774-2.179l.456.305.511-.204a2.43 2.43 0 0 1 3.239 2.916l-.15.53.352.422a2.43 2.43 0 0 1-1.773 3.981l-.548.022-.293.464a2.43 2.43 0 0 1-4.334-.455l-.19-.516Zm43.632-159.45a1.523 1.523 0 0 1-2.496-1.11 1.523 1.523 0 0 1 .285-2.717 1.523 1.523 0 0 1 2.673-.568 1.523 1.523 0 0 1 1.366 2.365 1.523 1.523 0 0 1-1.828 2.03Z" fill-opacity=".4" fill="#A3B1BF"/><path d="M224.622 221.613c32.537 0 58.914-26.37 58.914-58.902 0-32.53-26.377-58.901-58.914-58.901-32.538 0-58.914 26.37-58.914 58.901 0 32.531 26.376 58.902 58.914 58.902Z" fill-opacity=".66" fill="#A3B1BF"/><path d="M225.346 142.06c-4.2 0-7.465 1.282-9.798 3.847-2.333 2.448-3.44 5.712-3.44 9.792h4.606c0-2.856.642-5.07 1.925-6.703 1.4-1.923 3.557-2.856 6.473-2.856 2.45 0 4.374.641 5.716 2.04 1.283 1.282 1.983 3.09 1.983 5.42 0 1.633-.584 3.148-1.75 4.605-.35.466-1.05 1.166-1.983 2.098-3.15 2.798-5.074 5.013-5.89 6.762-.7 1.457-1.05 3.147-1.05 5.07v1.341h4.666v-1.34c0-1.574.35-2.973 1.108-4.255.583-1.05 1.458-2.099 2.74-3.206 2.567-2.273 4.142-3.789 4.725-4.488 1.458-1.924 2.216-4.197 2.216-6.82 0-3.497-1.108-6.236-3.266-8.218-2.275-2.098-5.249-3.089-8.981-3.089Zm-.875 35.496c-.992 0-1.808.291-2.508.99-.7.642-.991 1.458-.991 2.449 0 .99.291 1.807.991 2.506.7.641 1.516.991 2.508.991.991 0 1.808-.35 2.508-.99.7-.642 1.05-1.458 1.05-2.507 0-.99-.35-1.807-.992-2.448-.7-.7-1.575-.99-2.566-.99Z" fill="#FFF"/><path d="M203.262 134.14c5.815-3.357 16.37-7.312 13.012-13.126-3.358-5.815-15.708-4.97-21.524-1.613-5.815 3.357-12.02 13.223-8.662 19.037 3.357 5.815 11.358-.941 17.174-4.298m26.417-13.32a4.863 4.863 0 1 0 .001-9.726 4.863 4.863 0 0 0-.001 9.727Z" fill="#FAFAFA"/><path d="m401.5 322.5 1.5 1.5" stroke="#979797" stroke-linecap="square"/></g></svg>